<svg width="647" height="316" viewBox="0 0 647 316" fill="none" xmlns="http://www.w3.org/2000/svg">
<path d="M640.777 61L639.373 66.0684L586.174 258.068L585.362 261H5.25922L6.66352 255.932L59.8618 63.9316L60.6743 61H640.777Z" stroke="#1A1915" stroke-width="8"/>
<path d="M68.518 89.2471H612.518" stroke="#1A1915" stroke-opacity="0.15" stroke-width="2" stroke-linecap="round"/>
<path d="M61.518 113.247H605.518" stroke="#1A1915" stroke-opacity="0.15" stroke-width="2" stroke-linecap="round"/>
<path d="M55.518 137.247H599.518" stroke="#1A1915" stroke-opacity="0.15" stroke-width="2" stroke-linecap="round"/>
<path d="M50.518 161.247L592.518 161.247" stroke="#1A1915" stroke-opacity="0.15" stroke-width="2" stroke-linecap="round"/>
<path d="M43.518 185.247L587.518 185.247" stroke="#1A1915" stroke-opacity="0.15" stroke-width="2" stroke-linecap="round"/>
<path d="M37.518 209.247L581.518 209.247" stroke="#1A1915" stroke-opacity="0.15" stroke-width="2" stroke-linecap="round"/>
<path d="M30.518 233.247L574.518 233.247" stroke="#1A1915" stroke-opacity="0.15" stroke-width="2" stroke-linecap="round"/>
<path d="M198.502 127.992C197.393 137.123 194.662 145.4 190.31 152.824C186.043 160.163 180.411 166.477 173.414 171.768C166.502 176.973 158.438 180.984 149.222 183.8C140.006 186.616 129.851 188.024 118.758 188.024C111.505 188.024 105.659 187.384 101.222 186.104C96.87 184.824 92.5607 183.075 88.294 180.856L89.062 179.064C94.0113 181.453 98.4487 183.075 102.374 183.928C106.299 184.696 110.31 185.08 114.406 185.08C123.195 185.08 131.046 183.032 137.958 178.936C144.955 174.755 150.886 168.355 155.75 159.736C160.614 151.032 164.198 139.939 166.502 126.456C168.635 113.827 168.678 103.672 166.63 95.992C164.582 88.312 161.041 82.7227 156.006 79.224C150.971 75.7253 144.998 73.976 138.086 73.976C133.905 73.976 130.491 74.7867 127.846 76.408C125.286 77.944 123.494 80.376 122.47 83.704C121.958 85.0693 120.849 88.824 119.142 94.968C117.521 101.112 115.43 108.835 112.87 118.136C110.395 127.352 107.707 137.336 104.806 148.088C101.905 158.755 99.046 169.464 96.23 180.216C93.414 190.883 90.7687 200.739 88.294 209.784C85.9047 218.829 83.942 226.253 82.406 232.056C80.9553 237.859 80.102 241.229 79.846 242.168C79.5047 243.533 79.59 244.685 80.102 245.624C80.614 246.563 81.5953 247.117 83.046 247.288L100.198 248.824C100.795 248.909 101.222 249.037 101.478 249.208C101.819 249.379 101.99 249.635 101.99 249.976C101.99 250.317 101.819 250.573 101.478 250.744C101.222 250.915 100.795 251 100.198 251H26.726C26.2993 251 25.958 250.957 25.702 250.872C25.446 250.701 25.318 250.445 25.318 250.104C25.318 249.848 25.446 249.635 25.702 249.464C25.8727 249.208 26.2567 249.037 26.854 248.952L38.374 247.544C40.166 247.373 41.4887 246.776 42.342 245.752C43.2807 244.728 44.0913 243.32 44.774 241.528C45.03 240.675 45.9687 237.304 47.59 231.416C49.2113 225.528 51.2593 218.019 53.734 208.888C56.294 199.672 59.0673 189.645 62.054 178.808C65.126 167.885 68.1127 156.963 71.014 146.04C74.0007 135.117 76.774 125.005 79.334 115.704C81.894 106.317 83.9847 98.5947 85.606 92.536C87.2273 86.392 88.1233 82.7653 88.294 81.656C88.7207 79.7787 88.6353 78.328 88.038 77.304C87.4407 76.28 86.2033 75.64 84.326 75.384L72.934 73.848C72.166 73.7627 71.654 73.6347 71.398 73.464C71.2273 73.208 71.142 72.952 71.142 72.696C71.142 72.3547 71.27 72.1413 71.526 72.056C71.8673 71.8853 72.3367 71.8 72.934 71.8H144.102C153.062 71.8 161.126 73.1227 168.294 75.768C175.462 78.4133 181.478 82.2107 186.342 87.16C191.206 92.024 194.705 97.912 196.838 104.824C199.057 111.736 199.611 119.459 198.502 127.992ZM244.284 73.246C250.059 73.246 254.329 74.2627 257.094 76.296C259.859 78.3293 261.242 80.7693 261.242 83.616C261.242 86.1373 260.347 88.252 258.558 89.96C256.85 91.5867 254.41 92.4 251.238 92.4C248.961 92.4 246.602 91.9527 244.162 91.058C241.803 90.082 239.404 88.9433 236.964 87.642C234.605 86.3407 232.328 85.2427 230.132 84.348C227.936 83.372 225.984 82.884 224.276 82.884C222.731 82.884 221.226 83.4533 219.762 84.592C218.379 85.6493 217.241 87.0727 216.346 88.862C215.533 90.57 215.126 92.4 215.126 94.352C215.126 96.304 215.695 98.2153 216.834 100.086C217.973 101.957 219.315 103.949 220.86 106.064C222.487 108.179 223.951 110.619 225.252 113.384C226.553 116.068 227.367 119.24 227.692 122.9C228.017 126.56 227.489 130.911 226.106 135.954L200.608 224.404C198.493 231.561 197.68 236.36 198.168 238.8C198.737 241.159 200.039 242.338 202.072 242.338C203.78 242.338 205.651 241.606 207.684 240.142C209.799 238.678 212.361 236.035 215.37 232.212C215.939 231.48 216.305 231.033 216.468 230.87C216.712 230.626 216.956 230.545 217.2 230.626C217.525 230.707 217.647 230.992 217.566 231.48C217.566 231.887 217.363 232.497 216.956 233.31C214.76 237.295 211.995 240.793 208.66 243.802C205.325 246.73 201.543 249.048 197.314 250.756C193.085 252.383 188.449 253.196 183.406 253.196C178.77 253.196 175.273 252.301 172.914 250.512C170.555 248.723 169.213 246.079 168.888 242.582C168.563 239.003 169.173 234.571 170.718 229.284L207.318 102.282C210.246 92.1967 214.76 84.836 220.86 80.2C227.041 75.564 234.849 73.246 244.284 73.246ZM304.585 221.56C302.366 229.837 301.427 235.299 301.769 237.944C302.195 240.589 303.561 241.912 305.865 241.912C307.657 241.912 309.577 241.144 311.625 239.608C313.758 238.072 316.446 235.299 319.689 231.288C320.201 230.52 320.542 230.051 320.713 229.88C320.969 229.624 321.225 229.539 321.481 229.624C321.822 229.709 321.95 230.008 321.865 230.52C321.865 230.947 321.651 231.587 321.225 232.44C317.726 238.669 313.033 243.704 307.145 247.544C301.342 251.384 294.558 253.304 286.793 253.304C281.673 253.304 277.961 252.195 275.657 249.976C273.438 247.757 272.329 244.557 272.329 240.376C272.329 238.84 272.499 236.835 272.841 234.36C273.267 231.885 273.865 229.027 274.633 225.784C275.401 222.456 276.339 218.787 277.449 214.776C278.558 210.765 279.753 206.413 281.033 201.72L282.185 202.232C278.174 212.813 273.779 221.944 269.001 229.624C264.307 237.219 259.017 243.064 253.129 247.16C247.326 251.256 240.755 253.304 233.417 253.304C224.798 253.304 218.227 250.232 213.705 244.088C209.182 237.859 207.561 228.6 208.841 216.312C209.438 207.949 211.358 199.843 214.601 191.992C217.843 184.141 222.153 176.888 227.529 170.232C232.905 163.491 239.091 157.603 246.089 152.568C253.086 147.448 260.681 143.48 268.873 140.664C277.065 137.763 285.598 136.312 294.473 136.312C300.873 136.312 306.718 136.781 312.009 137.72C317.299 138.659 321.481 139.725 324.553 140.92C327.71 142.029 329.289 143.011 329.289 143.864C329.289 144.632 328.905 145.229 328.137 145.656C327.369 145.997 326.558 146.381 325.705 146.808C324.851 147.149 324.254 147.832 323.913 148.856L304.585 221.56ZM239.433 220.024C238.323 228.643 238.707 234.787 240.585 238.456C242.462 242.04 244.937 243.832 248.009 243.832C250.654 243.832 253.385 242.68 256.201 240.376C259.102 237.987 262.046 234.403 265.033 229.624C268.105 224.845 271.177 218.915 274.249 211.832C277.321 204.749 280.435 196.472 283.593 187C286.75 177.528 289.95 166.861 293.193 155C294.558 149.965 295.113 146.083 294.857 143.352C294.601 140.536 292.894 139.128 289.737 139.128C285.129 139.128 280.521 140.707 275.913 143.864C271.39 147.021 267.081 151.331 262.985 156.792C258.889 162.253 255.219 168.483 251.977 175.48C248.734 182.392 246.003 189.688 243.785 197.368C241.566 204.963 240.115 212.515 239.433 220.024ZM316.171 162.68C315.915 162.595 315.787 162.381 315.787 162.04C315.872 161.699 316.085 161.315 316.427 160.888C321.12 153.379 326.837 147.405 333.579 142.968C340.32 138.531 347.104 136.312 353.931 136.312C358.368 136.312 361.739 137.336 364.043 139.384C366.347 141.347 367.499 144.333 367.499 148.344C367.499 151.16 366.987 154.531 365.963 158.456C364.939 162.381 363.744 166.392 362.379 170.488C361.013 174.499 359.733 178.211 358.539 181.624C357.344 185.037 356.533 187.64 356.107 189.432L355.339 189.176C359.947 179.277 364.896 170.957 370.187 164.216C375.477 157.389 380.811 151.971 386.187 147.96C391.648 143.864 396.896 140.92 401.931 139.128C407.051 137.251 411.744 136.312 416.011 136.312C421.387 136.312 425.355 137.549 427.915 140.024C430.475 142.499 431.84 146.04 432.011 150.648C432.181 155.171 431.328 160.589 429.451 166.904L412.043 223.096C409.739 230.691 408.928 235.725 409.611 238.2C410.293 240.675 411.659 241.912 413.707 241.912C415.499 241.912 417.461 241.144 419.595 239.608C421.813 238.072 424.501 235.299 427.659 231.288C428.171 230.52 428.512 230.051 428.683 229.88C428.939 229.624 429.195 229.539 429.451 229.624C429.792 229.709 429.92 230.008 429.835 230.52C429.835 230.947 429.621 231.587 429.195 232.44C425.781 238.669 421.088 243.704 415.115 247.544C409.141 251.384 401.888 253.304 393.355 253.304C388.405 253.304 384.693 252.408 382.219 250.616C379.829 248.739 378.549 245.965 378.379 242.296C378.208 238.627 379.019 233.933 380.811 228.216L398.091 172.408C400.651 164.301 401.461 158.84 400.523 156.024C399.669 153.123 397.451 151.672 393.867 151.672C391.563 151.672 388.619 152.696 385.035 154.744C381.536 156.707 377.739 159.907 373.643 164.344C369.632 168.781 365.579 174.584 361.483 181.752C357.472 188.835 353.76 197.453 350.347 207.608C348.725 212.387 347.445 216.611 346.507 220.28C345.568 223.949 344.885 227.107 344.459 229.752C344.117 232.312 343.947 234.36 343.947 235.896C343.947 237.517 344.288 238.84 344.971 239.864C345.653 240.803 345.995 242.04 345.995 243.576C345.995 246.392 343.691 248.739 339.083 250.616C334.56 252.408 328.288 253.304 320.267 253.304C315.061 253.304 311.989 252.28 311.051 250.232C310.112 248.099 310.368 244.728 311.819 240.12L334.347 168.568C336.651 161.485 337.589 156.664 337.163 154.104C336.821 151.544 335.541 150.264 333.323 150.264C331.531 150.264 329.483 151.032 327.179 152.568C324.875 154.019 321.803 157.005 317.963 161.528C317.621 161.955 317.28 162.253 316.939 162.424C316.683 162.595 316.427 162.68 316.171 162.68Z" fill="#1A1915"/>
<path d="M535.869 71.702C546.621 71.702 556.239 73.886 564.723 78.254C573.207 82.538 580.137 88.754 585.513 96.902C590.973 105.05 594.501 114.92 596.097 126.512C597.693 138.02 596.895 150.998 593.703 165.446C590.511 179.558 585.555 192.074 578.835 202.994C572.199 213.914 564.219 223.154 554.895 230.714C545.655 238.19 535.491 243.86 524.403 247.724C513.399 251.588 501.933 253.52 490.005 253.52C478.329 253.52 468.081 251.42 459.261 247.22C450.441 243.02 443.385 236.846 438.093 228.698C432.885 220.55 429.735 210.554 428.643 198.71C427.635 186.782 429.147 173.174 433.179 157.886C436.455 145.79 441.159 134.534 447.291 124.118C453.423 113.618 460.899 104.462 469.719 96.65C478.539 88.838 488.493 82.748 499.581 78.38C510.669 73.928 522.765 71.702 535.869 71.702ZM491.013 250.496C495.465 250.496 499.959 249.278 504.495 246.842C509.115 244.322 513.777 239.87 518.481 233.486C523.185 227.018 527.847 217.988 532.467 206.396C537.171 194.804 541.749 179.936 546.201 161.792C549.309 149.108 551.577 138.146 553.005 128.906C554.433 119.582 555.147 111.728 555.147 105.344C555.231 97.868 554.391 91.862 552.627 87.326C550.947 82.79 548.595 79.514 545.571 77.498C542.631 75.398 539.187 74.348 535.239 74.348C530.871 74.348 526.335 75.776 521.631 78.632C517.011 81.488 512.391 86.234 507.771 92.87C503.151 99.506 498.531 108.452 493.911 119.708C489.375 130.964 484.965 144.992 480.681 161.792C477.153 175.736 474.549 187.58 472.869 197.324C471.273 206.984 470.433 215.048 470.349 221.516C470.265 232.184 472.113 239.702 475.893 244.07C479.673 248.354 484.713 250.496 491.013 250.496Z" fill="#1D9E75"/>
</svg>
