<svg width="626" height="316" viewBox="0 0 626 316" fill="none" xmlns="http://www.w3.org/2000/svg">
<path d="M574 257H0L54.0859 65H626L574 257Z" fill="#1A1915"/>
<mask id="mask0_2073_52" style="mask-type:alpha" maskUnits="userSpaceOnUse" x="15" y="71" width="574" height="183">
<path d="M188.984 127.992C187.875 137.123 185.144 145.4 180.792 152.824C176.525 160.163 170.893 166.477 163.896 171.768C156.984 176.973 148.92 180.984 139.704 183.8C130.488 186.616 120.333 188.024 109.24 188.024C101.987 188.024 96.1413 187.384 91.704 186.104C87.352 184.824 83.0427 183.075 78.776 180.856L79.544 179.064C84.4933 181.453 88.9307 183.075 92.856 183.928C96.7813 184.696 100.792 185.08 104.888 185.08C113.677 185.08 121.528 183.032 128.44 178.936C135.437 174.755 141.368 168.355 146.232 159.736C151.096 151.032 154.68 139.939 156.984 126.456C159.117 113.827 159.16 103.672 157.112 95.992C155.064 88.312 151.523 82.7227 146.488 79.224C141.453 75.7253 135.48 73.976 128.568 73.976C124.387 73.976 120.973 74.7867 118.328 76.408C115.768 77.944 113.976 80.376 112.952 83.704C112.44 85.0693 111.331 88.824 109.624 94.968C108.003 101.112 105.912 108.835 103.352 118.136C100.877 127.352 98.1893 137.336 95.288 148.088C92.3867 158.755 89.528 169.464 86.712 180.216C83.896 190.883 81.2507 200.739 78.776 209.784C76.3867 218.829 74.424 226.253 72.888 232.056C71.4373 237.859 70.584 241.229 70.328 242.168C69.9867 243.533 70.072 244.685 70.584 245.624C71.096 246.563 72.0773 247.117 73.528 247.288L90.68 248.824C91.2773 248.909 91.704 249.037 91.96 249.208C92.3013 249.379 92.472 249.635 92.472 249.976C92.472 250.317 92.3013 250.573 91.96 250.744C91.704 250.915 91.2773 251 90.68 251H17.208C16.7813 251 16.44 250.957 16.184 250.872C15.928 250.701 15.8 250.445 15.8 250.104C15.8 249.848 15.928 249.635 16.184 249.464C16.3547 249.208 16.7387 249.037 17.336 248.952L28.856 247.544C30.648 247.373 31.9707 246.776 32.824 245.752C33.7627 244.728 34.5733 243.32 35.256 241.528C35.512 240.675 36.4507 237.304 38.072 231.416C39.6933 225.528 41.7413 218.019 44.216 208.888C46.776 199.672 49.5493 189.645 52.536 178.808C55.608 167.885 58.5947 156.963 61.496 146.04C64.4827 135.117 67.256 125.005 69.816 115.704C72.376 106.317 74.4667 98.5947 76.088 92.536C77.7093 86.392 78.6053 82.7653 78.776 81.656C79.2027 79.7787 79.1173 78.328 78.52 77.304C77.9227 76.28 76.6853 75.64 74.808 75.384L63.416 73.848C62.648 73.7627 62.136 73.6347 61.88 73.464C61.7093 73.208 61.624 72.952 61.624 72.696C61.624 72.3547 61.752 72.1413 62.008 72.056C62.3493 71.8853 62.8187 71.8 63.416 71.8H134.584C143.544 71.8 151.608 73.1227 158.776 75.768C165.944 78.4133 171.96 82.2107 176.824 87.16C181.688 92.024 185.187 97.912 187.32 104.824C189.539 111.736 190.093 119.459 188.984 127.992ZM234.766 73.246C240.541 73.246 244.811 74.2627 247.576 76.296C250.341 78.3293 251.724 80.7693 251.724 83.616C251.724 86.1373 250.829 88.252 249.04 89.96C247.332 91.5867 244.892 92.4 241.72 92.4C239.443 92.4 237.084 91.9527 234.644 91.058C232.285 90.082 229.886 88.9433 227.446 87.642C225.087 86.3407 222.81 85.2427 220.614 84.348C218.418 83.372 216.466 82.884 214.758 82.884C213.213 82.884 211.708 83.4533 210.244 84.592C208.861 85.6493 207.723 87.0727 206.828 88.862C206.015 90.57 205.608 92.4 205.608 94.352C205.608 96.304 206.177 98.2153 207.316 100.086C208.455 101.957 209.797 103.949 211.342 106.064C212.969 108.179 214.433 110.619 215.734 113.384C217.035 116.068 217.849 119.24 218.174 122.9C218.499 126.56 217.971 130.911 216.588 135.954L191.09 224.404C188.975 231.561 188.162 236.36 188.65 238.8C189.219 241.159 190.521 242.338 192.554 242.338C194.262 242.338 196.133 241.606 198.166 240.142C200.281 238.678 202.843 236.035 205.852 232.212C206.421 231.48 206.787 231.033 206.95 230.87C207.194 230.626 207.438 230.545 207.682 230.626C208.007 230.707 208.129 230.992 208.048 231.48C208.048 231.887 207.845 232.497 207.438 233.31C205.242 237.295 202.477 240.793 199.142 243.802C195.807 246.73 192.025 249.048 187.796 250.756C183.567 252.383 178.931 253.196 173.888 253.196C169.252 253.196 165.755 252.301 163.396 250.512C161.037 248.723 159.695 246.079 159.37 242.582C159.045 239.003 159.655 234.571 161.2 229.284L197.8 102.282C200.728 92.1967 205.242 84.836 211.342 80.2C217.523 75.564 225.331 73.246 234.766 73.246ZM295.067 221.56C292.848 229.837 291.909 235.299 292.251 237.944C292.677 240.589 294.043 241.912 296.347 241.912C298.139 241.912 300.059 241.144 302.107 239.608C304.24 238.072 306.928 235.299 310.171 231.288C310.683 230.52 311.024 230.051 311.195 229.88C311.451 229.624 311.707 229.539 311.963 229.624C312.304 229.709 312.432 230.008 312.347 230.52C312.347 230.947 312.133 231.587 311.707 232.44C308.208 238.669 303.515 243.704 297.627 247.544C291.824 251.384 285.04 253.304 277.275 253.304C272.155 253.304 268.443 252.195 266.139 249.976C263.92 247.757 262.811 244.557 262.811 240.376C262.811 238.84 262.981 236.835 263.323 234.36C263.749 231.885 264.347 229.027 265.115 225.784C265.883 222.456 266.821 218.787 267.931 214.776C269.04 210.765 270.235 206.413 271.515 201.72L272.667 202.232C268.656 212.813 264.261 221.944 259.483 229.624C254.789 237.219 249.499 243.064 243.611 247.16C237.808 251.256 231.237 253.304 223.899 253.304C215.28 253.304 208.709 250.232 204.187 244.088C199.664 237.859 198.043 228.6 199.323 216.312C199.92 207.949 201.84 199.843 205.083 191.992C208.325 184.141 212.635 176.888 218.011 170.232C223.387 163.491 229.573 157.603 236.571 152.568C243.568 147.448 251.163 143.48 259.355 140.664C267.547 137.763 276.08 136.312 284.955 136.312C291.355 136.312 297.2 136.781 302.491 137.72C307.781 138.659 311.963 139.725 315.035 140.92C318.192 142.029 319.771 143.011 319.771 143.864C319.771 144.632 319.387 145.229 318.619 145.656C317.851 145.997 317.04 146.381 316.187 146.808C315.333 147.149 314.736 147.832 314.395 148.856L295.067 221.56ZM229.915 220.024C228.805 228.643 229.189 234.787 231.067 238.456C232.944 242.04 235.419 243.832 238.491 243.832C241.136 243.832 243.867 242.68 246.683 240.376C249.584 237.987 252.528 234.403 255.515 229.624C258.587 224.845 261.659 218.915 264.731 211.832C267.803 204.749 270.917 196.472 274.075 187C277.232 177.528 280.432 166.861 283.675 155C285.04 149.965 285.595 146.083 285.339 143.352C285.083 140.536 283.376 139.128 280.219 139.128C275.611 139.128 271.003 140.707 266.395 143.864C261.872 147.021 257.563 151.331 253.467 156.792C249.371 162.253 245.701 168.483 242.459 175.48C239.216 182.392 236.485 189.688 234.267 197.368C232.048 204.963 230.597 212.515 229.915 220.024ZM306.653 162.68C306.397 162.595 306.269 162.381 306.269 162.04C306.354 161.699 306.567 161.315 306.909 160.888C311.602 153.379 317.319 147.405 324.061 142.968C330.802 138.531 337.586 136.312 344.413 136.312C348.85 136.312 352.221 137.336 354.525 139.384C356.829 141.347 357.981 144.333 357.981 148.344C357.981 151.16 357.469 154.531 356.445 158.456C355.421 162.381 354.226 166.392 352.861 170.488C351.495 174.499 350.215 178.211 349.021 181.624C347.826 185.037 347.015 187.64 346.589 189.432L345.821 189.176C350.429 179.277 355.378 170.957 360.669 164.216C365.959 157.389 371.293 151.971 376.669 147.96C382.13 143.864 387.378 140.92 392.413 139.128C397.533 137.251 402.226 136.312 406.493 136.312C411.869 136.312 415.837 137.549 418.397 140.024C420.957 142.499 422.322 146.04 422.493 150.648C422.663 155.171 421.81 160.589 419.933 166.904L402.525 223.096C400.221 230.691 399.41 235.725 400.093 238.2C400.775 240.675 402.141 241.912 404.189 241.912C405.981 241.912 407.943 241.144 410.077 239.608C412.295 238.072 414.983 235.299 418.141 231.288C418.653 230.52 418.994 230.051 419.165 229.88C419.421 229.624 419.677 229.539 419.933 229.624C420.274 229.709 420.402 230.008 420.317 230.52C420.317 230.947 420.103 231.587 419.677 232.44C416.263 238.669 411.57 243.704 405.597 247.544C399.623 251.384 392.37 253.304 383.837 253.304C378.887 253.304 375.175 252.408 372.701 250.616C370.311 248.739 369.031 245.965 368.861 242.296C368.69 238.627 369.501 233.933 371.293 228.216L388.573 172.408C391.133 164.301 391.943 158.84 391.005 156.024C390.151 153.123 387.933 151.672 384.349 151.672C382.045 151.672 379.101 152.696 375.517 154.744C372.018 156.707 368.221 159.907 364.125 164.344C360.114 168.781 356.061 174.584 351.965 181.752C347.954 188.835 344.242 197.453 340.829 207.608C339.207 212.387 337.927 216.611 336.989 220.28C336.05 223.949 335.367 227.107 334.941 229.752C334.599 232.312 334.429 234.36 334.429 235.896C334.429 237.517 334.77 238.84 335.453 239.864C336.135 240.803 336.477 242.04 336.477 243.576C336.477 246.392 334.173 248.739 329.565 250.616C325.042 252.408 318.77 253.304 310.749 253.304C305.543 253.304 302.471 252.28 301.533 250.232C300.594 248.099 300.85 244.728 302.301 240.12L324.829 168.568C327.133 161.485 328.071 156.664 327.645 154.104C327.303 151.544 326.023 150.264 323.805 150.264C322.013 150.264 319.965 151.032 317.661 152.568C315.357 154.019 312.285 157.005 308.445 161.528C308.103 161.955 307.762 162.253 307.421 162.424C307.165 162.595 306.909 162.68 306.653 162.68Z" fill="#1A1915"/>
<path d="M526.351 71.702C537.103 71.702 546.721 73.886 555.205 78.254C563.689 82.538 570.619 88.754 575.995 96.902C581.455 105.05 584.983 114.92 586.579 126.512C588.175 138.02 587.377 150.998 584.185 165.446C580.993 179.558 576.037 192.074 569.317 202.994C562.681 213.914 554.701 223.154 545.377 230.714C536.137 238.19 525.973 243.86 514.885 247.724C503.881 251.588 492.415 253.52 480.487 253.52C468.811 253.52 458.563 251.42 449.743 247.22C440.923 243.02 433.867 236.846 428.575 228.698C423.367 220.55 420.217 210.554 419.125 198.71C418.117 186.782 419.629 173.174 423.661 157.886C426.937 145.79 431.641 134.534 437.773 124.118C443.905 113.618 451.381 104.462 460.201 96.65C469.021 88.838 478.975 82.748 490.063 78.38C501.151 73.928 513.247 71.702 526.351 71.702ZM481.495 250.496C485.947 250.496 490.441 249.278 494.977 246.842C499.597 244.322 504.259 239.87 508.963 233.486C513.667 227.018 518.329 217.988 522.949 206.396C527.653 194.804 532.231 179.936 536.683 161.792C539.791 149.108 542.059 138.146 543.487 128.906C544.915 119.582 545.629 111.728 545.629 105.344C545.713 97.868 544.873 91.862 543.109 87.326C541.429 82.79 539.077 79.514 536.053 77.498C533.113 75.398 529.669 74.348 525.721 74.348C521.353 74.348 516.817 75.776 512.113 78.632C507.493 81.488 502.873 86.234 498.253 92.87C493.633 99.506 489.013 108.452 484.393 119.708C479.857 130.964 475.447 144.992 471.163 161.792C467.635 175.736 465.031 187.58 463.351 197.324C461.755 206.984 460.915 215.048 460.831 221.516C460.747 232.184 462.595 239.702 466.375 244.07C470.155 248.354 475.195 250.496 481.495 250.496Z" fill="#1D9E75"/>
</mask>
<g mask="url(#mask0_2073_52)">
<path d="M574 257H0L54.0859 65H626L574 257Z" fill="#F7F5F0"/>
<path d="M608.437 222C554.219 265.373 429.55 278.699 419.166 222C408.782 165.301 446.595 105.566 437 30.0003C427.406 -45.5654 625.584 30.0003 625.584 30.0003L608.437 222Z" fill="#1D9E75"/>
</g>
</svg>
